<?xml version="1.0" encoding="utf-8"?>
<svg version="1.1" id="Layer_1" xmlns="http://www.w3.org/2000/svg" xmlns:xlink="http://www.w3.org/1999/xlink" x="0px" y="0px"
	 viewBox="0 0 256 256" style="enable-background:new 0 0 256 256;" xml:space="preserve">
<style type="text/css">
	.st0{fill:#001529;}
	.st1{fill:#FFFFFF;}
	.st2{fill:#AA0047;}
</style>
<path class="st0" d="M256,256H0V0h256V256z"/>
<polygon class="st1" points="133.3,136 107.5,173.3 56,98.7 56,24 "/>
<polygon class="st1" points="240,36.1 240,36.1 240,36 "/>
<g>
	
		<image style="overflow:visible;opacity:0.57;" width="100" height="268" xlink:href="B9392426.png"  transform="matrix(1 0 0 1 -14 -6)">
	</image>
	<g>
		<rect x="16" y="24" class="st2" width="40" height="208"/>
	</g>
</g>
<polygon class="st1" points="240,29.8 240,232 200,232 200,91.8 "/>
<g>
	
		<image style="overflow:visible;opacity:0.57;" width="197" height="241" xlink:href="B939242A.png"  transform="matrix(1 0 0 1 73 -6)">
	</image>
	<g>
		<polygon class="st1" points="240,24 240,36.1 200,96.2 152,168.3 128,204.4 104,168.3 128,132.2 200,24 		"/>
	</g>
</g>
</svg>
