<?xml version="1.0" encoding="utf-8"?>
<svg version="1.1" id="Layer_1" xmlns="http://www.w3.org/2000/svg" xmlns:xlink="http://www.w3.org/1999/xlink" x="0px" y="0px"
	 viewBox="0 0 256 256" style="enable-background:new 0 0 256 256;" xml:space="preserve">
<style type="text/css">
	.st0{fill:#001529;}
	.st1{fill:#FFFFFF;stroke:#001529;stroke-width:6;stroke-miterlimit:10;}
	.st2{fill:#C1272D;}
</style>
<path class="st0" d="M216.67,240H39.33C26.45,240,16,229.55,16,216.67V39.33C16,26.45,26.45,16,39.33,16h177.33
	C229.55,16,240,26.45,240,39.33v177.33C240,229.55,229.55,240,216.67,240z"/>
<g>
	<path class="st1" d="M32,224v-36.97c0-3.55,2.5-7.66,5.57-9.3L143.86,140l-106.3-37.73c-3.06-1.64-5.57-5.74-5.57-9.3V35.83
		c0-2.19,1.95-3.83,4.17-3.83H220.1c1.95,0,3.9,1.64,3.9,3.83V75.9c0,2.19-1.95,4.1-3.9,4.1H104l115.83,38.13
		c2.23,0.82,4.17,4.37,4.17,6.84v30.08c0,2.46-1.95,6.01-4.17,6.84l-81.53,27.61h81.81c1.95,0,3.9,1.91,3.9,4.1V224"/>
</g>
<path class="st2" d="M16,187.52h224V221c0,10.49-8.51,19-19,19H35c-10.49,0-19-8.51-19-19V187.52z"/>
</svg>
